# xmcd CD database file
#
# Track frame offsets:
#	150
#	19800
#	31950
#
# Disc length: 630 seconds
#
# Revision: 3
# Processed by: cddbd v1.5.2PL0 Copyright (c) Steve Scherf et al.
# Submitted via: CDex 1.70beta2
#
DISCID=1a027403
DTITLE=THE HIGH-LOWS - 荒野はるかに／ズートロ(69バージョン)
DYEAR=2004
DGENRE=Rock
TTITLE0=荒野はるかに
TTITLE1=ズートロ(69バージョン)
TTITLE2=64,928-キャサディ・キャサディ-
EXTD=YEAR: 2004
EXTT0=
EXTT1=
EXTT2=
PLAYORDER=
